<mxfile host="Electron" agent="Mozilla/5.0 (Macintosh; Intel Mac OS X 10_15_7) AppleWebKit/537.36 (KHTML, like Gecko) draw.io/24.7.8 Chrome/128.0.6613.36 Electron/32.0.1 Safari/537.36" version="24.7.8">
  <diagram name="Page-1" id="cUz-_kcoAxIZZB4TPepN">
    <mxGraphModel dx="1807" dy="858" grid="0" gridSize="10" guides="1" tooltips="1" connect="1" arrows="1" fold="1" page="0" pageScale="1" pageWidth="850" pageHeight="1100" background="#F5F5F5" math="0" shadow="0">
      <root>
        <mxCell id="0" />
        <mxCell id="1" parent="0" />
        <mxCell id="fEagmlc0LEHlAk1Vz62F-4" value="" style="group;rounded=0;" parent="1" vertex="1" connectable="0">
          <mxGeometry x="-71" y="142" width="90" height="100" as="geometry" />
        </mxCell>
        <mxCell id="fEagmlc0LEHlAk1Vz62F-2" value="" style="shape=image;verticalLabelPosition=bottom;labelBackgroundColor=default;verticalAlign=top;aspect=fixed;imageAspect=0;image=https://seeklogo.com/images/G/github-actions-logo-031704BDC6-seeklogo.com.png;rounded=0;" parent="fEagmlc0LEHlAk1Vz62F-4" vertex="1">
          <mxGeometry x="10" width="70" height="70" as="geometry" />
        </mxCell>
        <mxCell id="fEagmlc0LEHlAk1Vz62F-3" value="Github Action" style="text;html=1;align=center;verticalAlign=middle;resizable=0;points=[];autosize=1;strokeColor=none;fillColor=none;rounded=0;" parent="fEagmlc0LEHlAk1Vz62F-4" vertex="1">
          <mxGeometry y="70" width="90" height="30" as="geometry" />
        </mxCell>
        <mxCell id="fEagmlc0LEHlAk1Vz62F-5" value="" style="group;rounded=0;" parent="1" vertex="1" connectable="0">
          <mxGeometry x="365" y="139" width="90" height="100" as="geometry" />
        </mxCell>
        <mxCell id="fEagmlc0LEHlAk1Vz62F-6" value="" style="shape=image;verticalLabelPosition=bottom;labelBackgroundColor=default;verticalAlign=top;aspect=fixed;imageAspect=0;image=https://seeklogo.com/images/G/github-actions-logo-031704BDC6-seeklogo.com.png;rounded=0;" parent="fEagmlc0LEHlAk1Vz62F-5" vertex="1">
          <mxGeometry x="10" width="70" height="70" as="geometry" />
        </mxCell>
        <mxCell id="fEagmlc0LEHlAk1Vz62F-7" value="Github Action" style="text;html=1;align=center;verticalAlign=middle;resizable=0;points=[];autosize=1;strokeColor=none;fillColor=none;rounded=0;" parent="fEagmlc0LEHlAk1Vz62F-5" vertex="1">
          <mxGeometry y="70" width="90" height="30" as="geometry" />
        </mxCell>
        <mxCell id="fEagmlc0LEHlAk1Vz62F-9" value="&lt;h1 style=&quot;text-align: center; margin-top: 0px;&quot;&gt;&lt;span style=&quot;background-color: initial;&quot;&gt;TerraformCD&lt;/span&gt;&lt;/h1&gt;&lt;h1 style=&quot;margin-top: 0px;&quot;&gt;&lt;span style=&quot;font-size: 12px; font-weight: 400;&quot;&gt;This workflow will deploy:&lt;br&gt;&amp;nbsp; &amp;nbsp; Network - (VPC / Subnet / RT ...)&lt;br&gt;&amp;nbsp; &amp;nbsp; EC2 - For K8S Cluster&lt;br&gt;&amp;nbsp; &amp;nbsp; EBS (for mysql volume)&lt;br&gt;&amp;nbsp; &amp;nbsp; S3 (for UI photos&lt;/span&gt;&lt;/h1&gt;&lt;div&gt;&lt;br&gt;&lt;/div&gt;" style="text;html=1;whiteSpace=wrap;overflow=hidden;rounded=0;" parent="1" vertex="1">
          <mxGeometry x="-92" y="289" width="197" height="200" as="geometry" />
        </mxCell>
        <mxCell id="fEagmlc0LEHlAk1Vz62F-11" value="&lt;h1 style=&quot;text-align: center; margin-top: 0px;&quot;&gt;&lt;span style=&quot;background-color: initial;&quot;&gt;CI&lt;/span&gt;&lt;/h1&gt;&lt;h1 style=&quot;margin-top: 0px;&quot;&gt;&lt;span style=&quot;font-size: 12px; font-weight: 400;&quot;&gt;Python app with UI that can write to mysql DB and present photos from S3 bucket&lt;/span&gt;&lt;/h1&gt;&lt;div&gt;&lt;span style=&quot;font-size: 12px;&quot;&gt;Build docker image and push to dockerhub&lt;br&gt;&lt;br&gt;&lt;b&gt;&lt;i&gt;Optional:&lt;/i&gt;&lt;/b&gt;&lt;/span&gt;&lt;span style=&quot;font-size: 12px; font-weight: 400;&quot;&gt;&lt;i&gt; unit tests, integration tests, security scan, version bump&lt;/i&gt;&lt;/span&gt;&lt;/div&gt;" style="text;html=1;whiteSpace=wrap;overflow=hidden;rounded=0;" parent="1" vertex="1">
          <mxGeometry x="320" y="270" width="180" height="265" as="geometry" />
        </mxCell>
        <mxCell id="fEagmlc0LEHlAk1Vz62F-12" value="" style="group;rounded=0;" parent="1" vertex="1" connectable="0">
          <mxGeometry x="597" y="137" width="90" height="100" as="geometry" />
        </mxCell>
        <mxCell id="fEagmlc0LEHlAk1Vz62F-13" value="" style="shape=image;verticalLabelPosition=bottom;labelBackgroundColor=default;verticalAlign=top;aspect=fixed;imageAspect=0;image=https://seeklogo.com/images/G/github-actions-logo-031704BDC6-seeklogo.com.png;rounded=0;" parent="fEagmlc0LEHlAk1Vz62F-12" vertex="1">
          <mxGeometry x="10" width="70" height="70" as="geometry" />
        </mxCell>
        <mxCell id="fEagmlc0LEHlAk1Vz62F-14" value="Github Action" style="text;html=1;align=center;verticalAlign=middle;resizable=0;points=[];autosize=1;strokeColor=none;fillColor=none;rounded=0;" parent="fEagmlc0LEHlAk1Vz62F-12" vertex="1">
          <mxGeometry y="70" width="90" height="30" as="geometry" />
        </mxCell>
        <mxCell id="fEagmlc0LEHlAk1Vz62F-16" value="&lt;h1 style=&quot;text-align: center; margin-top: 0px;&quot;&gt;&lt;span style=&quot;background-color: initial;&quot;&gt;CD&lt;/span&gt;&lt;/h1&gt;&lt;h1 style=&quot;margin-top: 0px;&quot;&gt;&lt;span style=&quot;font-size: 12px; font-weight: 400;&quot;&gt;Deploy in the k8s cluster:&lt;/span&gt;&lt;/h1&gt;&lt;div&gt;Python UI (Deployment)&lt;br&gt;Service - Type nodeport&lt;br&gt;&lt;/div&gt;&lt;div&gt;&lt;span style=&quot;font-size: 12px; font-weight: 400;&quot;&gt;Mysql as statefulset&lt;br&gt;add storageclass&lt;br&gt;&lt;br&gt;root user and password as k8s secrets&lt;/span&gt;&lt;/div&gt;&lt;div&gt;&lt;span style=&quot;font-size: 12px; font-weight: 400;&quot;&gt;&lt;br&gt;&lt;/span&gt;&lt;/div&gt;&lt;div&gt;&lt;i&gt;&lt;span style=&quot;font-size: 12px;&quot;&gt;&lt;b&gt;Optional: &lt;/b&gt;&lt;/span&gt;&lt;span style=&quot;font-size: 12px; font-weight: 400;&quot;&gt;Deploy with helm chart&lt;/span&gt;&lt;/i&gt;&lt;/div&gt;" style="text;html=1;whiteSpace=wrap;overflow=hidden;rounded=0;" parent="1" vertex="1">
          <mxGeometry x="560" y="270" width="180" height="280" as="geometry" />
        </mxCell>
        <mxCell id="fEagmlc0LEHlAk1Vz62F-33" value="EC2 instance contents" style="points=[[0,0],[0.25,0],[0.5,0],[0.75,0],[1,0],[1,0.25],[1,0.5],[1,0.75],[1,1],[0.75,1],[0.5,1],[0.25,1],[0,1],[0,0.75],[0,0.5],[0,0.25]];outlineConnect=0;gradientColor=none;html=1;whiteSpace=wrap;fontSize=12;fontStyle=0;container=1;pointerEvents=0;collapsible=0;recursiveResize=0;shape=mxgraph.aws4.group;grIcon=mxgraph.aws4.group_ec2_instance_contents;strokeColor=#D86613;fillColor=none;verticalAlign=top;align=left;spacingLeft=30;fontColor=#D86613;dashed=0;rounded=0;" parent="1" vertex="1">
          <mxGeometry x="-36" y="605" width="397" height="192" as="geometry" />
        </mxCell>
        <mxCell id="fEagmlc0LEHlAk1Vz62F-32" value="" style="rounded=0;whiteSpace=wrap;html=1;" parent="fEagmlc0LEHlAk1Vz62F-33" vertex="1">
          <mxGeometry x="51" y="39" width="314" height="137" as="geometry" />
        </mxCell>
        <mxCell id="fEagmlc0LEHlAk1Vz62F-37" value="" style="shape=image;verticalLabelPosition=bottom;labelBackgroundColor=default;verticalAlign=top;aspect=fixed;imageAspect=0;image=https://upload.wikimedia.org/wikipedia/commons/3/39/Kubernetes_logo_without_workmark.svg;rounded=0;" parent="fEagmlc0LEHlAk1Vz62F-33" vertex="1">
          <mxGeometry x="35" y="24" width="41.19" height="40" as="geometry" />
        </mxCell>
        <mxCell id="CS-P4QT5H29JeLCFlvO3-1" value="Kind Cluster" style="text;html=1;align=center;verticalAlign=middle;resizable=0;points=[];autosize=1;strokeColor=none;fillColor=none;" vertex="1" parent="fEagmlc0LEHlAk1Vz62F-33">
          <mxGeometry x="14.090000000000003" y="59" width="83" height="26" as="geometry" />
        </mxCell>
        <mxCell id="fEagmlc0LEHlAk1Vz62F-66" value="" style="group;rounded=0;" parent="fEagmlc0LEHlAk1Vz62F-33" vertex="1" connectable="0">
          <mxGeometry x="249" y="85" width="90" height="60" as="geometry" />
        </mxCell>
        <mxCell id="CS-P4QT5H29JeLCFlvO3-2" value="" style="group" vertex="1" connectable="0" parent="fEagmlc0LEHlAk1Vz62F-66">
          <mxGeometry x="-18" y="25" width="90" height="50.400000000000006" as="geometry" />
        </mxCell>
        <mxCell id="fEagmlc0LEHlAk1Vz62F-64" value="mysql" style="ellipse;whiteSpace=wrap;html=1;rounded=0;" parent="CS-P4QT5H29JeLCFlvO3-2" vertex="1">
          <mxGeometry x="14.999999999999998" y="6.519402985074616" width="75" height="43.88059701492539" as="geometry" />
        </mxCell>
        <mxCell id="fEagmlc0LEHlAk1Vz62F-65" value="" style="aspect=fixed;sketch=0;html=1;dashed=0;whitespace=wrap;verticalLabelPosition=bottom;verticalAlign=top;fillColor=#2875E2;strokeColor=#ffffff;points=[[0.005,0.63,0],[0.1,0.2,0],[0.9,0.2,0],[0.5,0,0],[0.995,0.63,0],[0.72,0.99,0],[0.5,1,0],[0.28,0.99,0]];shape=mxgraph.kubernetes.icon2;kubernetesLabel=1;prIcon=pod;rounded=0;" parent="CS-P4QT5H29JeLCFlvO3-2" vertex="1">
          <mxGeometry width="25.07462686567165" height="24.071641791044787" as="geometry" />
        </mxCell>
        <mxCell id="fEagmlc0LEHlAk1Vz62F-73" value="Python UI" style="ellipse;whiteSpace=wrap;html=1;rounded=0;" parent="fEagmlc0LEHlAk1Vz62F-33" vertex="1">
          <mxGeometry x="103" y="115.99940298507457" width="75" height="43.88059701492539" as="geometry" />
        </mxCell>
        <mxCell id="fEagmlc0LEHlAk1Vz62F-78" value="&lt;font style=&quot;font-size: 9px;&quot;&gt;Deployment&lt;/font&gt;" style="text;html=1;align=center;verticalAlign=middle;resizable=0;points=[];autosize=1;strokeColor=none;fillColor=none;rounded=0;" parent="fEagmlc0LEHlAk1Vz62F-33" vertex="1">
          <mxGeometry x="58" y="145" width="70" height="30" as="geometry" />
        </mxCell>
        <mxCell id="fEagmlc0LEHlAk1Vz62F-72" value="" style="group;rounded=0;" parent="fEagmlc0LEHlAk1Vz62F-33" vertex="1" connectable="0">
          <mxGeometry x="97.09" y="109.06999999999995" width="90" height="64.70000000000005" as="geometry" />
        </mxCell>
        <mxCell id="fEagmlc0LEHlAk1Vz62F-74" value="" style="aspect=fixed;sketch=0;html=1;dashed=0;whitespace=wrap;verticalLabelPosition=bottom;verticalAlign=top;fillColor=#2875E2;strokeColor=#ffffff;points=[[0.005,0.63,0],[0.1,0.2,0],[0.9,0.2,0],[0.5,0,0],[0.995,0.63,0],[0.72,0.99,0],[0.5,1,0],[0.28,0.99,0]];shape=mxgraph.kubernetes.icon2;kubernetesLabel=1;prIcon=pod;rounded=0;" parent="fEagmlc0LEHlAk1Vz62F-72" vertex="1">
          <mxGeometry width="25.07462686567165" height="24.071641791044787" as="geometry" />
        </mxCell>
        <mxCell id="fEagmlc0LEHlAk1Vz62F-79" value="&lt;span style=&quot;text-align: left; text-wrap: wrap;&quot;&gt;&lt;font style=&quot;font-size: 9px;&quot;&gt;Statefulset&lt;/font&gt;&lt;/span&gt;" style="text;html=1;align=center;verticalAlign=middle;resizable=0;points=[];autosize=1;strokeColor=none;fillColor=none;rounded=0;" parent="fEagmlc0LEHlAk1Vz62F-33" vertex="1">
          <mxGeometry x="203" y="143.76999999999998" width="70" height="30" as="geometry" />
        </mxCell>
        <mxCell id="CS-P4QT5H29JeLCFlvO3-11" style="edgeStyle=orthogonalEdgeStyle;rounded=0;orthogonalLoop=1;jettySize=auto;html=1;entryX=0.5;entryY=0;entryDx=0;entryDy=0;" edge="1" parent="fEagmlc0LEHlAk1Vz62F-33" source="CS-P4QT5H29JeLCFlvO3-3" target="fEagmlc0LEHlAk1Vz62F-73">
          <mxGeometry relative="1" as="geometry" />
        </mxCell>
        <mxCell id="CS-P4QT5H29JeLCFlvO3-3" value="svc&lt;br&gt;nodeport" style="rhombus;whiteSpace=wrap;html=1;" vertex="1" parent="fEagmlc0LEHlAk1Vz62F-33">
          <mxGeometry x="100.25" y="43" width="80.5" height="53" as="geometry" />
        </mxCell>
        <mxCell id="fEagmlc0LEHlAk1Vz62F-40" value="" style="group;rounded=0;" parent="1" vertex="1" connectable="0">
          <mxGeometry x="401" y="801" width="100" height="120" as="geometry" />
        </mxCell>
        <mxCell id="fEagmlc0LEHlAk1Vz62F-17" value="" style="group;rounded=0;" parent="fEagmlc0LEHlAk1Vz62F-40" vertex="1" connectable="0">
          <mxGeometry x="5" width="90" height="100" as="geometry" />
        </mxCell>
        <mxCell id="fEagmlc0LEHlAk1Vz62F-18" value="" style="shape=image;verticalLabelPosition=bottom;labelBackgroundColor=default;verticalAlign=top;aspect=fixed;imageAspect=0;image=https://seeklogo.com/images/G/github-actions-logo-031704BDC6-seeklogo.com.png;rounded=0;" parent="fEagmlc0LEHlAk1Vz62F-17" vertex="1">
          <mxGeometry x="10" width="70" height="70" as="geometry" />
        </mxCell>
        <mxCell id="fEagmlc0LEHlAk1Vz62F-19" value="Github Action" style="text;html=1;align=center;verticalAlign=middle;resizable=0;points=[];autosize=1;strokeColor=none;fillColor=none;rounded=0;" parent="fEagmlc0LEHlAk1Vz62F-17" vertex="1">
          <mxGeometry y="70" width="90" height="30" as="geometry" />
        </mxCell>
        <mxCell id="fEagmlc0LEHlAk1Vz62F-20" value="&lt;b&gt;TerraformCD&lt;/b&gt;" style="text;html=1;align=center;verticalAlign=middle;resizable=0;points=[];autosize=1;strokeColor=none;fillColor=none;rounded=0;" parent="fEagmlc0LEHlAk1Vz62F-40" vertex="1">
          <mxGeometry y="90" width="100" height="30" as="geometry" />
        </mxCell>
        <mxCell id="fEagmlc0LEHlAk1Vz62F-41" value="" style="group;rounded=0;" parent="1" vertex="1" connectable="0">
          <mxGeometry x="564" y="530" width="100" height="120" as="geometry" />
        </mxCell>
        <mxCell id="fEagmlc0LEHlAk1Vz62F-42" value="" style="group;rounded=0;" parent="fEagmlc0LEHlAk1Vz62F-41" vertex="1" connectable="0">
          <mxGeometry x="5" width="90" height="100" as="geometry" />
        </mxCell>
        <mxCell id="fEagmlc0LEHlAk1Vz62F-43" value="" style="shape=image;verticalLabelPosition=bottom;labelBackgroundColor=default;verticalAlign=top;aspect=fixed;imageAspect=0;image=https://seeklogo.com/images/G/github-actions-logo-031704BDC6-seeklogo.com.png;rounded=0;" parent="fEagmlc0LEHlAk1Vz62F-42" vertex="1">
          <mxGeometry x="10" width="70" height="70" as="geometry" />
        </mxCell>
        <mxCell id="fEagmlc0LEHlAk1Vz62F-44" value="Github Action" style="text;html=1;align=center;verticalAlign=middle;resizable=0;points=[];autosize=1;strokeColor=none;fillColor=none;rounded=0;" parent="fEagmlc0LEHlAk1Vz62F-42" vertex="1">
          <mxGeometry y="70" width="90" height="30" as="geometry" />
        </mxCell>
        <mxCell id="fEagmlc0LEHlAk1Vz62F-45" value="&lt;b&gt;CI&lt;/b&gt;" style="text;html=1;align=center;verticalAlign=middle;resizable=0;points=[];autosize=1;strokeColor=none;fillColor=none;rounded=0;" parent="fEagmlc0LEHlAk1Vz62F-41" vertex="1">
          <mxGeometry x="30" y="90" width="40" height="30" as="geometry" />
        </mxCell>
        <mxCell id="fEagmlc0LEHlAk1Vz62F-49" value="" style="group;rounded=0;" parent="1" vertex="1" connectable="0">
          <mxGeometry x="434" y="550" width="100" height="54.60000000000002" as="geometry" />
        </mxCell>
        <mxCell id="fEagmlc0LEHlAk1Vz62F-46" value="" style="image;sketch=0;aspect=fixed;html=1;points=[];align=center;fontSize=12;image=img/lib/mscae/Docker.svg;rounded=0;" parent="fEagmlc0LEHlAk1Vz62F-49" vertex="1">
          <mxGeometry width="60" height="49.2" as="geometry" />
        </mxCell>
        <mxCell id="fEagmlc0LEHlAk1Vz62F-47" value="&lt;font style=&quot;font-size: 14px;&quot; face=&quot;Comic Sans MS&quot;&gt;Hub&lt;/font&gt;" style="text;html=1;align=center;verticalAlign=middle;resizable=0;points=[];autosize=1;strokeColor=none;fillColor=none;rounded=0;" parent="fEagmlc0LEHlAk1Vz62F-49" vertex="1">
          <mxGeometry x="50" y="24.600000000000023" width="50" height="30" as="geometry" />
        </mxCell>
        <mxCell id="fEagmlc0LEHlAk1Vz62F-50" value="Python UI" style="swimlane;fontStyle=0;childLayout=stackLayout;horizontal=1;startSize=30;horizontalStack=0;resizeParent=1;resizeParentMax=0;resizeLast=0;collapsible=1;marginBottom=0;whiteSpace=wrap;html=1;rounded=0;" parent="1" vertex="1">
          <mxGeometry x="544" y="690" width="140" height="90" as="geometry">
            <mxRectangle x="930" y="760" width="140" height="30" as="alternateBounds" />
          </mxGeometry>
        </mxCell>
        <mxCell id="fEagmlc0LEHlAk1Vz62F-51" value="main.py" style="text;strokeColor=none;fillColor=none;align=left;verticalAlign=middle;spacingLeft=4;spacingRight=4;overflow=hidden;points=[[0,0.5],[1,0.5]];portConstraint=eastwest;rotatable=0;whiteSpace=wrap;html=1;rounded=0;" parent="fEagmlc0LEHlAk1Vz62F-50" vertex="1">
          <mxGeometry y="30" width="140" height="30" as="geometry" />
        </mxCell>
        <mxCell id="fEagmlc0LEHlAk1Vz62F-52" value="Dockerfile" style="text;strokeColor=none;fillColor=none;align=left;verticalAlign=middle;spacingLeft=4;spacingRight=4;overflow=hidden;points=[[0,0.5],[1,0.5]];portConstraint=eastwest;rotatable=0;whiteSpace=wrap;html=1;rounded=0;" parent="fEagmlc0LEHlAk1Vz62F-50" vertex="1">
          <mxGeometry y="60" width="140" height="30" as="geometry" />
        </mxCell>
        <mxCell id="fEagmlc0LEHlAk1Vz62F-54" style="edgeStyle=orthogonalEdgeStyle;rounded=0;orthogonalLoop=1;jettySize=auto;html=1;entryX=0.467;entryY=1.032;entryDx=0;entryDy=0;entryPerimeter=0;" parent="1" source="fEagmlc0LEHlAk1Vz62F-50" target="fEagmlc0LEHlAk1Vz62F-45" edge="1">
          <mxGeometry relative="1" as="geometry" />
        </mxCell>
        <mxCell id="fEagmlc0LEHlAk1Vz62F-55" style="edgeStyle=orthogonalEdgeStyle;rounded=0;orthogonalLoop=1;jettySize=auto;html=1;entryX=0.959;entryY=0.306;entryDx=0;entryDy=0;entryPerimeter=0;" parent="1" source="fEagmlc0LEHlAk1Vz62F-43" target="fEagmlc0LEHlAk1Vz62F-46" edge="1">
          <mxGeometry relative="1" as="geometry" />
        </mxCell>
        <mxCell id="fEagmlc0LEHlAk1Vz62F-57" value="" style="group;rounded=0;" parent="1" vertex="1" connectable="0">
          <mxGeometry x="414" y="677" width="100" height="120" as="geometry" />
        </mxCell>
        <mxCell id="fEagmlc0LEHlAk1Vz62F-58" value="" style="group;rounded=0;" parent="fEagmlc0LEHlAk1Vz62F-57" vertex="1" connectable="0">
          <mxGeometry x="5" width="90" height="100" as="geometry" />
        </mxCell>
        <mxCell id="fEagmlc0LEHlAk1Vz62F-59" value="" style="shape=image;verticalLabelPosition=bottom;labelBackgroundColor=default;verticalAlign=top;aspect=fixed;imageAspect=0;image=https://seeklogo.com/images/G/github-actions-logo-031704BDC6-seeklogo.com.png;rounded=0;" parent="fEagmlc0LEHlAk1Vz62F-58" vertex="1">
          <mxGeometry x="10" width="70" height="70" as="geometry" />
        </mxCell>
        <mxCell id="fEagmlc0LEHlAk1Vz62F-60" value="Github Action" style="text;html=1;align=center;verticalAlign=middle;resizable=0;points=[];autosize=1;strokeColor=none;fillColor=none;rounded=0;" parent="fEagmlc0LEHlAk1Vz62F-58" vertex="1">
          <mxGeometry y="70" width="90" height="30" as="geometry" />
        </mxCell>
        <mxCell id="fEagmlc0LEHlAk1Vz62F-61" value="&lt;b&gt;CD&lt;/b&gt;" style="text;html=1;align=center;verticalAlign=middle;resizable=0;points=[];autosize=1;strokeColor=none;fillColor=none;rounded=0;" parent="fEagmlc0LEHlAk1Vz62F-57" vertex="1">
          <mxGeometry x="30" y="90" width="40" height="30" as="geometry" />
        </mxCell>
        <mxCell id="fEagmlc0LEHlAk1Vz62F-62" style="edgeStyle=orthogonalEdgeStyle;rounded=0;orthogonalLoop=1;jettySize=auto;html=1;entryX=0.5;entryY=0;entryDx=0;entryDy=0;" parent="1" source="fEagmlc0LEHlAk1Vz62F-46" target="fEagmlc0LEHlAk1Vz62F-59" edge="1">
          <mxGeometry relative="1" as="geometry" />
        </mxCell>
        <mxCell id="CS-P4QT5H29JeLCFlvO3-5" style="edgeStyle=orthogonalEdgeStyle;rounded=0;orthogonalLoop=1;jettySize=auto;html=1;" edge="1" parent="1" source="fEagmlc0LEHlAk1Vz62F-75" target="fEagmlc0LEHlAk1Vz62F-64">
          <mxGeometry relative="1" as="geometry" />
        </mxCell>
        <mxCell id="fEagmlc0LEHlAk1Vz62F-75" value="EBS" style="outlineConnect=0;dashed=0;verticalLabelPosition=bottom;verticalAlign=top;align=center;html=1;shape=mxgraph.aws3.volume;fillColor=#E05243;gradientColor=none;rounded=0;" parent="1" vertex="1">
          <mxGeometry x="221.25" y="801" width="52.5" height="75" as="geometry" />
        </mxCell>
        <mxCell id="CS-P4QT5H29JeLCFlvO3-9" style="edgeStyle=orthogonalEdgeStyle;rounded=0;orthogonalLoop=1;jettySize=auto;html=1;entryX=0.5;entryY=1;entryDx=0;entryDy=0;" edge="1" parent="1" source="CS-P4QT5H29JeLCFlvO3-6" target="fEagmlc0LEHlAk1Vz62F-73">
          <mxGeometry relative="1" as="geometry" />
        </mxCell>
        <mxCell id="CS-P4QT5H29JeLCFlvO3-6" value="S3 - Photos" style="sketch=0;points=[[0,0,0],[0.25,0,0],[0.5,0,0],[0.75,0,0],[1,0,0],[0,1,0],[0.25,1,0],[0.5,1,0],[0.75,1,0],[1,1,0],[0,0.25,0],[0,0.5,0],[0,0.75,0],[1,0.25,0],[1,0.5,0],[1,0.75,0]];outlineConnect=0;fontColor=#232F3E;fillColor=#7AA116;strokeColor=#ffffff;dashed=0;verticalLabelPosition=bottom;verticalAlign=top;align=center;html=1;fontSize=12;fontStyle=0;aspect=fixed;shape=mxgraph.aws4.resourceIcon;resIcon=mxgraph.aws4.s3;" vertex="1" parent="1">
          <mxGeometry x="71" y="805" width="67" height="67" as="geometry" />
        </mxCell>
        <mxCell id="CS-P4QT5H29JeLCFlvO3-12" style="edgeStyle=orthogonalEdgeStyle;rounded=0;orthogonalLoop=1;jettySize=auto;html=1;" edge="1" parent="1" source="fEagmlc0LEHlAk1Vz62F-18" target="fEagmlc0LEHlAk1Vz62F-75">
          <mxGeometry relative="1" as="geometry" />
        </mxCell>
        <mxCell id="CS-P4QT5H29JeLCFlvO3-13" style="edgeStyle=orthogonalEdgeStyle;rounded=0;orthogonalLoop=1;jettySize=auto;html=1;entryX=1;entryY=0.5;entryDx=0;entryDy=0;entryPerimeter=0;" edge="1" parent="1" source="fEagmlc0LEHlAk1Vz62F-20" target="CS-P4QT5H29JeLCFlvO3-6">
          <mxGeometry relative="1" as="geometry">
            <Array as="points">
              <mxPoint x="182" y="906" />
              <mxPoint x="182" y="838" />
            </Array>
          </mxGeometry>
        </mxCell>
        <mxCell id="CS-P4QT5H29JeLCFlvO3-14" style="edgeStyle=orthogonalEdgeStyle;rounded=0;orthogonalLoop=1;jettySize=auto;html=1;entryX=1;entryY=0.75;entryDx=0;entryDy=0;" edge="1" parent="1" source="fEagmlc0LEHlAk1Vz62F-18" target="fEagmlc0LEHlAk1Vz62F-33">
          <mxGeometry relative="1" as="geometry" />
        </mxCell>
        <mxCell id="CS-P4QT5H29JeLCFlvO3-19" value="" style="group;rounded=0;" vertex="1" connectable="0" parent="1">
          <mxGeometry x="127" y="139" width="90" height="100" as="geometry" />
        </mxCell>
        <mxCell id="CS-P4QT5H29JeLCFlvO3-20" value="" style="shape=image;verticalLabelPosition=bottom;labelBackgroundColor=default;verticalAlign=top;aspect=fixed;imageAspect=0;image=https://seeklogo.com/images/G/github-actions-logo-031704BDC6-seeklogo.com.png;rounded=0;" vertex="1" parent="CS-P4QT5H29JeLCFlvO3-19">
          <mxGeometry x="10" width="70" height="70" as="geometry" />
        </mxCell>
        <mxCell id="CS-P4QT5H29JeLCFlvO3-21" value="Github Action" style="text;html=1;align=center;verticalAlign=middle;resizable=0;points=[];autosize=1;strokeColor=none;fillColor=none;rounded=0;" vertex="1" parent="CS-P4QT5H29JeLCFlvO3-19">
          <mxGeometry y="70" width="90" height="30" as="geometry" />
        </mxCell>
        <mxCell id="CS-P4QT5H29JeLCFlvO3-22" value="&lt;h1 style=&quot;text-align: center; margin-top: 0px;&quot;&gt;&lt;span style=&quot;background-color: initial; text-align: left;&quot;&gt;ClusterInit&lt;/span&gt;&lt;/h1&gt;&lt;h1 style=&quot;margin-top: 0px;&quot;&gt;&lt;span style=&quot;background-color: initial; font-size: 12px; font-weight: 400;&quot;&gt;This workflow will deploy:&lt;/span&gt;&lt;/h1&gt;&lt;h1 style=&quot;margin-top: 0px;&quot;&gt;&lt;span style=&quot;font-size: 12px; font-weight: 400;&quot;&gt;&amp;nbsp; &amp;nbsp; K8S cluster (kind) on the EC2&lt;/span&gt;&lt;/h1&gt;&lt;div&gt;&lt;br&gt;&lt;/div&gt;" style="text;html=1;whiteSpace=wrap;overflow=hidden;rounded=0;" vertex="1" parent="1">
          <mxGeometry x="106" y="286" width="197" height="200" as="geometry" />
        </mxCell>
        <mxCell id="CS-P4QT5H29JeLCFlvO3-23" style="edgeStyle=orthogonalEdgeStyle;rounded=0;orthogonalLoop=1;jettySize=auto;html=1;entryX=1;entryY=0.5;entryDx=0;entryDy=0;" edge="1" parent="1" source="fEagmlc0LEHlAk1Vz62F-59" target="fEagmlc0LEHlAk1Vz62F-32">
          <mxGeometry relative="1" as="geometry" />
        </mxCell>
      </root>
    </mxGraphModel>
  </diagram>
</mxfile>
